<svg xmlns="http://www.w3.org/2000/svg" viewBox="0 0 100 100">
  <defs>
    <linearGradient id="grad" x1="0%" y1="0%" x2="100%" y2="100%">
      <stop offset="0%" style="stop-color:#3B82F6;stop-opacity:1" />
      <stop offset="100%" style="stop-color:#06B6D4;stop-opacity:1" />
    </linearGradient>
  </defs>
  <rect width="100" height="100" rx="20" fill="url(#grad)"/>
  <g fill="white">
    <!-- QR Code stylized pattern -->
    <rect x="15" y="15" width="20" height="20" rx="3"/>
    <rect x="40" y="15" width="8" height="8" rx="2"/>
    <rect x="53" y="15" width="8" height="8" rx="2"/>
    <rect x="65" y="15" width="20" height="20" rx="3"/>
    
    <rect x="15" y="40" width="8" height="8" rx="2"/>
    <rect x="28" y="40" width="8" height="8" rx="2"/>
    <rect x="40" y="40" width="8" height="8" rx="2"/>
    <rect x="53" y="40" width="8" height="8" rx="2"/>
    <rect x="65" y="40" width="8" height="8" rx="2"/>
    <rect x="77" y="40" width="8" height="8" rx="2"/>
    
    <rect x="15" y="53" width="8" height="8" rx="2"/>
    <rect x="40" y="53" width="8" height="8" rx="2"/>
    <rect x="65" y="53" width="8" height="8" rx="2"/>
    <rect x="77" y="53" width="8" height="8" rx="2"/>
    
    <rect x="15" y="65" width="20" height="20" rx="3"/>
    <rect x="40" y="65" width="8" height="8" rx="2"/>
    <rect x="53" y="65" width="8" height="8" rx="2"/>
    <rect x="65" y="65" width="20" height="20" rx="3"/>
    
    <rect x="40" y="77" width="8" height="8" rx="2"/>
    <rect x="53" y="77" width="8" height="8" rx="2"/>
  </g>
</svg>
